<svg width="224" height="64" viewBox="0 0 224 64" fill="none" xmlns="http://www.w3.org/2000/svg">
<path d="M96 0H224V64H96V0Z" fill="#0C6750"/>
<path d="M0 0H96V64H0V0Z" fill="#56431C"/>
<path d="M197.244 48.468C195.948 48.468 194.784 48.36 193.752 48.144C192.72 47.928 191.568 47.64 190.296 47.28C189.456 47.04 188.892 46.908 188.604 46.884L188.928 40.224H191.844L192.636 44.868C192.948 45.204 193.5 45.504 194.292 45.768C195.108 46.032 196.032 46.164 197.064 46.164C198.672 46.164 199.872 45.816 200.664 45.12C201.48 44.4 201.888 43.404 201.888 42.132C201.888 41.292 201.648 40.572 201.168 39.972C200.688 39.348 200.028 38.796 199.188 38.316C198.348 37.812 197.196 37.236 195.732 36.588C193.74 35.676 192.084 34.596 190.764 33.348C189.468 32.076 188.82 30.36 188.82 28.2C188.82 26.856 189.168 25.644 189.864 24.564C190.56 23.46 191.592 22.596 192.96 21.972C194.352 21.324 196.044 21 198.036 21C199.212 21 200.244 21.084 201.132 21.252C202.044 21.42 203.028 21.648 204.084 21.936C204.708 22.104 205.176 22.212 205.488 22.26L205.272 28.56H202.392L201.636 24.132C201.42 23.916 200.988 23.712 200.34 23.52C199.692 23.304 198.972 23.196 198.18 23.196C196.74 23.196 195.648 23.532 194.904 24.204C194.184 24.852 193.824 25.728 193.824 26.832C193.824 27.72 194.088 28.488 194.616 29.136C195.168 29.784 195.828 30.336 196.596 30.792C197.364 31.224 198.576 31.848 200.232 32.664C201.576 33.312 202.728 33.948 203.688 34.572C204.648 35.196 205.476 36.012 206.172 37.02C206.868 38.004 207.216 39.168 207.216 40.512C207.216 41.832 206.88 43.092 206.208 44.292C205.56 45.492 204.48 46.488 202.968 47.28C201.48 48.072 199.572 48.468 197.244 48.468Z" fill="#8EE574"/>
<path d="M168.406 24.024L165.454 23.556V21.324H185.326L185.686 27.84H182.806L181.474 23.88L173.698 23.484V33.672L179.062 33.564L179.746 30.396H182.05V39.54H179.782L179.062 36.3L173.698 36.156V45.552L179.206 45.912V48.072H165.634V45.912L168.406 45.552V24.024Z" fill="#8EE574"/>
<path d="M148.681 23.7L143.533 23.88L142.129 31.728H139.105L139.717 21.324H162.937L163.369 31.728H160.525L159.121 23.88L154.045 23.7V45.552L159.085 45.912V48.072H144.073V45.912L148.681 45.552V23.7Z" fill="#8EE574"/>
<path d="M125.636 48.468C122.996 48.468 120.716 47.892 118.796 46.74C116.9 45.564 115.46 43.956 114.476 41.916C113.492 39.876 113 37.572 113 35.004C113 32.052 113.564 29.52 114.692 27.408C115.844 25.296 117.464 23.7 119.552 22.62C121.64 21.54 124.076 21 126.86 21C129.476 21 132.416 21.372 135.68 22.116L135.284 28.812H131.648L130.676 24.204C130.436 23.964 129.98 23.748 129.308 23.556C128.636 23.34 127.76 23.232 126.68 23.232C124.328 23.232 122.48 24.192 121.136 26.112C119.792 28.008 119.12 30.756 119.12 34.356C119.12 37.884 119.696 40.74 120.848 42.924C122 45.084 123.752 46.164 126.104 46.164C127.064 46.164 127.964 46.044 128.804 45.804C129.644 45.564 130.28 45.252 130.712 44.868V37.128L126.896 36.768V34.356H137.84V36.768L135.932 37.092V46.632C135.428 46.656 134.516 46.86 133.196 47.244C131.66 47.652 130.34 47.952 129.236 48.144C128.156 48.36 126.956 48.468 125.636 48.468Z" fill="#8EE574"/>
<path d="M21.7422 48.324C20.2302 48.324 19.1142 47.976 18.3942 47.28C17.6742 46.584 17.3142 45.48 17.3142 43.968V30.756H14.9742V28.884C15.1662 28.812 15.5142 28.692 16.0182 28.524C16.5222 28.332 16.9062 28.176 17.1702 28.056C17.5782 27.744 17.9262 27.204 18.2142 26.436C18.4302 25.932 18.8262 24.684 19.4022 22.692H22.2822L22.4262 27.984H27.9342V30.756H22.4622V40.872C22.4622 42.216 22.4982 43.164 22.5702 43.716C22.6422 44.268 22.7982 44.628 23.0382 44.796C23.2782 44.94 23.6982 45.012 24.2982 45.012C24.8982 45.012 25.5222 44.952 26.1702 44.832C26.8182 44.688 27.3582 44.52 27.7902 44.328L28.4742 46.344C27.8022 46.848 26.8182 47.304 25.5222 47.712C24.2262 48.12 22.9662 48.324 21.7422 48.324ZM39.4615 48.396C36.2935 48.396 33.9295 47.472 32.3695 45.624C30.8335 43.752 30.0655 41.208 30.0655 37.992C30.0655 35.832 30.4615 33.96 31.2535 32.376C32.0695 30.792 33.2095 29.58 34.6735 28.74C36.1375 27.9 37.8295 27.48 39.7495 27.48C42.1495 27.48 43.9975 28.116 45.2935 29.388C46.5895 30.636 47.2615 32.424 47.3095 34.752C47.3095 36.336 47.2135 37.512 47.0215 38.28H35.3215C35.4175 40.464 35.9335 42.168 36.8695 43.392C37.8055 44.592 39.1375 45.192 40.8655 45.192C41.8015 45.192 42.7615 45.036 43.7455 44.724C44.7535 44.412 45.5455 44.04 46.1215 43.608L47.0215 45.588C46.3735 46.284 45.3175 46.932 43.8535 47.532C42.4135 48.108 40.9495 48.396 39.4615 48.396ZM42.2695 36.12C42.3175 35.448 42.3415 34.932 42.3415 34.572C42.3415 31.38 41.2735 29.784 39.1375 29.784C37.9615 29.784 37.0495 30.252 36.4015 31.188C35.7535 32.124 35.3935 33.768 35.3215 36.12H42.2695ZM54.1785 45.048C54.3705 45.336 54.8025 45.612 55.4745 45.876C56.1705 46.116 56.8665 46.236 57.5625 46.236C58.6905 46.236 59.5305 46.008 60.0825 45.552C60.6585 45.072 60.9465 44.448 60.9465 43.68C60.9465 42.888 60.5985 42.252 59.9025 41.772C59.2065 41.268 58.0305 40.656 56.3745 39.936L55.3665 39.504C53.7105 38.808 52.4745 37.968 51.6585 36.984C50.8425 36 50.4345 34.728 50.4345 33.168C50.4345 32.088 50.7585 31.128 51.4065 30.288C52.0545 29.424 52.9665 28.752 54.1425 28.272C55.3185 27.792 56.6745 27.552 58.2105 27.552C59.3385 27.552 60.2985 27.624 61.0905 27.768C61.9065 27.912 62.7585 28.104 63.6465 28.344C64.1265 28.512 64.4865 28.608 64.7265 28.632V33.348H61.8825L61.0545 30.612C60.9105 30.372 60.5865 30.156 60.0825 29.964C59.5785 29.772 59.0025 29.676 58.3545 29.676C57.3705 29.676 56.5785 29.892 55.9785 30.324C55.4025 30.732 55.1145 31.308 55.1145 32.052C55.1145 32.724 55.3185 33.288 55.7265 33.744C56.1345 34.176 56.5785 34.512 57.0585 34.752C57.5385 34.992 58.4265 35.388 59.7225 35.94C61.0185 36.492 62.0865 37.02 62.9265 37.524C63.7905 38.028 64.4985 38.688 65.0505 39.504C65.6265 40.296 65.9145 41.268 65.9145 42.42C65.9145 44.196 65.2185 45.636 63.8265 46.74C62.4345 47.844 60.4305 48.396 57.8145 48.396C56.5905 48.396 55.4865 48.288 54.5025 48.072C53.5425 47.856 52.4265 47.568 51.1545 47.208L50.3625 46.956V42.204H53.3505L54.1785 45.048ZM74.8985 48.324C73.3865 48.324 72.2705 47.976 71.5505 47.28C70.8305 46.584 70.4705 45.48 70.4705 43.968V30.756H68.1305V28.884C68.3225 28.812 68.6705 28.692 69.1745 28.524C69.6785 28.332 70.0625 28.176 70.3265 28.056C70.7345 27.744 71.0825 27.204 71.3705 26.436C71.5865 25.932 71.9825 24.684 72.5585 22.692H75.4385L75.5825 27.984H81.0905V30.756H75.6185V40.872C75.6185 42.216 75.6545 43.164 75.7265 43.716C75.7985 44.268 75.9545 44.628 76.1945 44.796C76.4345 44.94 76.8545 45.012 77.4545 45.012C78.0545 45.012 78.6785 44.952 79.3265 44.832C79.9745 44.688 80.5145 44.52 80.9465 44.328L81.6305 46.344C80.9585 46.848 79.9745 47.304 78.6785 47.712C77.3825 48.12 76.1225 48.324 74.8985 48.324Z" fill="#FFD647"/>
<path d="M0 58H64V64H0V58Z" fill="#FFD647"/>
<path d="M96 0H192V6H96V0Z" fill="#8EE574"/>
</svg>
